<svg width="74" height="66" viewBox="0 0 74 66" fill="none" xmlns="http://www.w3.org/2000/svg">
<g filter="url(#filter0_d_665_985)">
<rect x="4" width="66" height="58" rx="6" fill="white"/>
<path d="M36.9536 52.48C35.6736 52.48 34.4869 52.32 33.3936 52C32.3269 51.6533 31.3936 51.1733 30.5936 50.56C29.8203 49.9467 29.2069 49.2133 28.7536 48.36C28.3269 47.5067 28.1136 46.56 28.1136 45.52C28.1136 43.9733 28.5269 42.7067 29.3536 41.72C30.2069 40.7333 31.2336 39.92 32.4336 39.28V39.12C31.4469 38.3733 30.6336 37.5333 29.9936 36.6C29.3536 35.64 29.0336 34.48 29.0336 33.12C29.0336 32.0533 29.2336 31.0933 29.6336 30.24C30.0336 29.36 30.5936 28.6133 31.3136 28C32.0336 27.3867 32.8869 26.92 33.8736 26.6C34.8869 26.28 35.9803 26.12 37.1536 26.12C38.3003 26.12 39.3536 26.2933 40.3136 26.64C41.2736 26.96 42.0869 27.4267 42.7536 28.04C43.4203 28.6267 43.9403 29.36 44.3136 30.24C44.6869 31.0933 44.8736 32.04 44.8736 33.08C44.8736 34.3067 44.5403 35.4 43.8736 36.36C43.2069 37.2933 42.4336 38.0533 41.5536 38.64V38.8C42.7803 39.4667 43.8203 40.32 44.6736 41.36C45.5269 42.4 45.9536 43.76 45.9536 45.44C45.9536 46.4533 45.7403 47.3867 45.3136 48.24C44.8869 49.0933 44.2736 49.84 43.4736 50.48C42.7003 51.0933 41.7536 51.5867 40.6336 51.96C39.5403 52.3067 38.3136 52.48 36.9536 52.48ZM38.5536 37.2C39.5936 36 40.1136 34.76 40.1136 33.48C40.1136 32.4933 39.8336 31.7067 39.2736 31.12C38.7403 30.5067 37.9936 30.2 37.0336 30.2C36.2603 30.2 35.5936 30.44 35.0336 30.92C34.4736 31.4 34.1936 32.1333 34.1936 33.12C34.1936 34.16 34.5936 34.9733 35.3936 35.56C36.1936 36.1467 37.2469 36.6933 38.5536 37.2ZM37.0736 48.4C38.0603 48.4 38.8736 48.1467 39.5136 47.64C40.1536 47.1067 40.4736 46.3067 40.4736 45.24C40.4736 44.68 40.3403 44.2 40.0736 43.8C39.8336 43.4 39.4736 43.04 38.9936 42.72C38.5136 42.3733 37.9403 42.0533 37.2736 41.76C36.6336 41.4667 35.9136 41.1467 35.1136 40.8C34.5536 41.3333 34.0869 41.9467 33.7136 42.64C33.3403 43.3333 33.1536 44.0667 33.1536 44.84C33.1536 45.96 33.5403 46.84 34.3136 47.48C35.0869 48.0933 36.0069 48.4 37.0736 48.4Z" fill="black"/>
<path d="M4 6C4 2.68629 6.68629 0 10 0H64C67.3137 0 70 2.68629 70 6V20H4V6Z" fill="#DD4C55"/>
<path d="M27.0833 10.05L26.8433 10.95H28.9283L28.7033 10.05C28.5633 9.56 28.4283 9.04 28.2983 8.49C28.1683 7.94 28.0383 7.41 27.9083 6.9H27.8483C27.7283 7.42 27.6033 7.955 27.4733 8.505C27.3533 9.045 27.2233 9.56 27.0833 10.05ZM23.5433 15L26.6033 5.22H29.2583L32.3183 15H29.9783L29.3783 12.675H26.3933L25.7933 15H23.5433ZM33.3869 15V5.22H36.7469C37.2869 5.22 37.7919 5.275 38.2619 5.385C38.7319 5.485 39.1419 5.66 39.4919 5.91C39.8419 6.15 40.1169 6.475 40.3169 6.885C40.5269 7.285 40.6319 7.78 40.6319 8.37C40.6319 8.94 40.5269 9.435 40.3169 9.855C40.1169 10.275 39.8419 10.62 39.4919 10.89C39.1419 11.16 38.7369 11.36 38.2769 11.49C37.8169 11.62 37.3269 11.685 36.8069 11.685H35.5919V15H33.3869ZM35.5919 9.93H36.6719C37.8719 9.93 38.4719 9.41 38.4719 8.37C38.4719 7.86 38.3119 7.5 37.9919 7.29C37.6719 7.08 37.2119 6.975 36.6119 6.975H35.5919V9.93ZM42.3225 15V5.22H45.8475C46.3675 5.22 46.8525 5.27 47.3025 5.37C47.7625 5.47 48.1625 5.64 48.5025 5.88C48.8425 6.11 49.1125 6.42 49.3125 6.81C49.5125 7.2 49.6125 7.685 49.6125 8.265C49.6125 8.985 49.4525 9.58 49.1325 10.05C48.8225 10.51 48.4025 10.855 47.8725 11.085L50.0925 15H47.6175L45.7425 11.475H44.5275V15H42.3225ZM44.5275 9.72H45.6675C46.2475 9.72 46.6875 9.6 46.9875 9.36C47.2975 9.11 47.4525 8.745 47.4525 8.265C47.4525 7.785 47.2975 7.45 46.9875 7.26C46.6875 7.07 46.2475 6.975 45.6675 6.975H44.5275V9.72Z" fill="white"/>
</g>
<defs>
<filter id="filter0_d_665_985" x="0" y="0" width="74" height="66" filterUnits="userSpaceOnUse" color-interpolation-filters="sRGB">
<feFlood flood-opacity="0" result="BackgroundImageFix"/>
<feColorMatrix in="SourceAlpha" type="matrix" values="0 0 0 0 0 0 0 0 0 0 0 0 0 0 0 0 0 0 127 0" result="hardAlpha"/>
<feOffset dy="4"/>
<feGaussianBlur stdDeviation="2"/>
<feColorMatrix type="matrix" values="0 0 0 0 0 0 0 0 0 0 0 0 0 0 0 0 0 0 0.25 0"/>
<feBlend mode="normal" in2="BackgroundImageFix" result="effect1_dropShadow_665_985"/>
<feBlend mode="normal" in="SourceGraphic" in2="effect1_dropShadow_665_985" result="shape"/>
</filter>
</defs>
</svg>
